<svg width="51" height="48" viewBox="0 0 51 48" fill="none" xmlns="http://www.w3.org/2000/svg">
<path fill-rule="evenodd" clip-rule="evenodd" d="M14.987 0.144C17.7063 0.0261818 18.5733 0 25.5 0C32.4267 0 33.2937 0.0283636 36.0106 0.144C38.7275 0.259636 40.5821 0.667636 42.2048 1.25891C43.904 1.86327 45.4456 2.808 46.7206 4.02982C48.0188 5.22764 49.0203 6.67636 49.6601 8.27782C50.2906 9.80509 50.7218 11.5505 50.847 14.1033C50.9722 16.6669 51 17.4829 51 24C51 30.5193 50.9699 31.3353 50.847 33.8945C50.7241 36.4473 50.2906 38.1927 49.6601 39.72C49.0203 41.3217 48.0171 42.7728 46.7206 43.9724C45.4456 45.1942 43.904 46.1367 42.2048 46.7389C40.5821 47.3324 38.7275 47.7382 36.0153 47.856C33.2937 47.9738 32.4267 48 25.5 48C18.5733 48 17.7063 47.9716 14.987 47.856C12.2748 47.7404 10.4202 47.3324 8.7975 46.7389C7.09577 46.1366 5.55395 45.1926 4.27936 43.9724C2.98206 42.7738 1.97814 41.3234 1.33759 39.7222C0.709364 38.1949 0.278182 36.4495 0.153 33.8967C0.0278181 31.3331 0 30.5171 0 24C0 17.4807 0.0301363 16.6647 0.153 14.1076C0.275864 11.5505 0.709364 9.80509 1.33759 8.27782C1.97908 6.67654 2.98378 5.22614 4.28168 4.02764C5.55446 2.80691 7.09473 1.86206 8.79518 1.25891C10.4179 0.667636 12.2725 0.261818 14.9847 0.144H14.987ZM35.8043 4.464C33.1152 4.34836 32.3085 4.32436 25.5 4.32436C18.6915 4.32436 17.8848 4.34836 15.1957 4.464C12.7083 4.57091 11.3591 4.96145 10.4596 5.29091C9.27041 5.72727 8.41964 6.24436 7.52714 7.08436C6.6811 7.85902 6.03001 8.80207 5.62159 9.84436C5.27155 10.6909 4.85659 11.9607 4.743 14.3018C4.62014 16.8327 4.59464 17.592 4.59464 24C4.59464 30.408 4.62014 31.1673 4.743 33.6982C4.85659 36.0393 5.27155 37.3091 5.62159 38.1556C6.02959 39.1964 6.681 40.1411 7.52714 40.9156C8.35009 41.712 9.35386 42.3251 10.4596 42.7091C11.3591 43.0385 12.7083 43.4291 15.1957 43.536C17.8848 43.6516 18.6892 43.6756 25.5 43.6756C32.3108 43.6756 33.1152 43.6516 35.8043 43.536C38.2917 43.4291 39.6409 43.0385 40.5404 42.7091C41.7296 42.2727 42.5804 41.7556 43.4729 40.9156C44.319 40.1411 44.9704 39.1964 45.3784 38.1556C45.7285 37.3091 46.1434 36.0393 46.257 33.6982C46.3799 31.1673 46.4054 30.408 46.4054 24C46.4054 17.592 46.3799 16.8327 46.257 14.3018C46.1434 11.9607 45.7285 10.6909 45.3784 9.84436C44.9148 8.72509 44.3654 7.92436 43.4729 7.08436C42.6497 6.28816 41.6478 5.67537 40.5404 5.29091C39.6409 4.96145 38.2917 4.57091 35.8043 4.464V4.464ZM22.243 31.3985C24.0619 32.1112 26.0874 32.2074 27.9733 31.6707C29.8593 31.134 31.4888 29.9976 32.5835 28.4558C33.6781 26.914 34.1701 25.0623 33.9754 23.217C33.7806 21.3716 32.9112 19.6472 31.5157 18.3382C30.626 17.5014 29.5504 16.8607 28.366 16.4621C27.1817 16.0636 25.9183 15.9172 24.6666 16.0333C23.4149 16.1495 22.2062 16.5255 21.1275 17.1341C20.0487 17.7427 19.1267 18.5689 18.4279 19.5531C17.7291 20.5374 17.2709 21.6552 17.0862 22.8261C16.9015 23.997 16.9949 25.1919 17.3598 26.3248C17.7247 27.4576 18.3518 28.5002 19.1962 29.3776C20.0406 30.2549 21.0811 30.9451 22.243 31.3985ZM16.2319 15.2771C17.449 14.1316 18.8939 13.2229 20.4841 12.603C22.0744 11.983 23.7788 11.6639 25.5 11.6639C27.2212 11.6639 28.9256 11.983 30.5159 12.603C32.1061 13.2229 33.551 14.1316 34.7681 15.2771C35.9852 16.4226 36.9507 17.7825 37.6093 19.2792C38.268 20.7759 38.6071 22.38 38.6071 24C38.6071 25.62 38.268 27.2241 37.6093 28.7208C36.9507 30.2175 35.9852 31.5774 34.7681 32.7229C32.31 35.0364 28.9762 36.3361 25.5 36.3361C22.0238 36.3361 18.69 35.0364 16.2319 32.7229C13.7739 30.4095 12.3929 27.2717 12.3929 24C12.3929 20.7283 13.7739 17.5906 16.2319 15.2771V15.2771ZM41.514 13.5011C41.8156 13.2333 42.0571 12.9113 42.2241 12.5541C42.3911 12.1969 42.4802 11.8119 42.4863 11.4217C42.4923 11.0315 42.4151 10.6441 42.2593 10.2825C42.1034 9.92089 41.872 9.59239 41.5788 9.31645C41.2856 9.04051 40.9366 8.82274 40.5524 8.67604C40.1682 8.52933 39.7566 8.45667 39.342 8.46236C38.9274 8.46805 38.5183 8.55197 38.1388 8.70916C37.7593 8.86634 37.4171 9.09359 37.1326 9.37745C36.5793 9.92952 36.2764 10.6628 36.2881 11.4217C36.2999 12.1805 36.6254 12.9052 37.1956 13.4418C37.7658 13.9785 38.5357 14.2849 39.342 14.2959C40.1483 14.307 40.9274 14.0219 41.514 13.5011V13.5011Z" fill="white"/>
</svg>
