<svg width="51" height="39" viewBox="0 0 51 39" fill="none" xmlns="http://www.w3.org/2000/svg">
<path d="M51 4.63271C49.1245 5.39425 47.0835 5.94233 44.9813 6.15579C47.1639 4.93523 48.7984 3.00694 49.5781 0.732716C47.5299 1.87958 45.2862 2.68377 42.9464 3.10964C41.9685 2.12556 40.7857 1.3416 39.4718 0.806605C38.158 0.271611 36.7411 -0.0029526 35.3096 2.39446e-05C29.5176 2.39446e-05 24.8595 4.41925 24.8595 9.84233C24.8595 10.6039 24.9576 11.3654 25.1169 12.0981C16.4443 11.6712 8.70941 7.77117 3.56712 1.80002C2.63014 3.30646 2.13913 5.02171 2.14517 6.76733C2.14517 10.1827 3.99002 13.1942 6.80327 14.9654C5.14538 14.9039 3.52632 14.475 2.07776 13.7135V13.8346C2.07776 18.6173 5.66939 22.5808 10.4562 23.4923C9.55742 23.7121 8.63284 23.8245 7.70424 23.8269C7.02392 23.8269 6.38036 23.7635 5.73068 23.6769C7.05456 27.5769 10.9097 30.4096 15.5004 30.5019C11.9088 33.15 7.41005 34.7077 2.52518 34.7077C1.64872 34.7077 0.839683 34.6788 0 34.5865C4.63358 37.3846 10.1314 39 16.052 39C35.2728 39 45.7903 24.0115 45.7903 11.0019C45.7903 10.575 45.7903 10.1481 45.7596 9.72117C47.7945 8.31925 49.5781 6.58271 51 4.63271Z" fill="white"/>
</svg>
