<svg width="57" height="63" viewBox="0 0 57 63" fill="none" xmlns="http://www.w3.org/2000/svg">
<g clip-path="url(#clip0_206_157)">
<path d="M28.9132 62.6367C28.0552 62.6367 27.2545 62.4035 26.5109 61.9953L18.9035 57.3884C17.7596 56.7469 18.3315 56.5137 18.6748 56.3971C20.2191 55.8723 20.5051 55.7556 22.1066 54.8226C22.2782 54.7059 22.507 54.7642 22.6786 54.8809L28.5128 58.4381C28.7416 58.5547 29.0276 58.5547 29.1992 58.4381L52.0211 44.9674C52.2499 44.8507 52.3643 44.6175 52.3643 44.3259V17.4428C52.3643 17.1512 52.2499 16.918 52.0211 16.8013L29.1992 3.38895C28.9704 3.27233 28.6843 3.27233 28.5128 3.38895L5.69084 16.8013C5.46205 16.918 5.34765 17.2095 5.34765 17.4428V44.3259C5.34765 44.5592 5.46205 44.8507 5.69084 44.9674L11.9254 48.6412C15.3001 50.3906 17.4164 48.3497 17.4164 46.3086V19.7754C17.4164 19.4255 17.7024 19.0757 18.1028 19.0757H21.0199C21.3631 19.0757 21.7062 19.3672 21.7062 19.7754V46.3086C21.7062 50.9155 19.2467 53.598 14.9569 53.598C13.6413 53.598 12.6118 53.598 9.69467 52.1401L3.68891 48.6412C2.20177 47.7665 1.28661 46.1336 1.28661 44.3843V17.5011C1.28661 15.7517 2.20177 14.1189 3.68891 13.2441L26.5109 -0.226563C27.9408 -1.04297 29.8855 -1.04297 31.3155 -0.226563L54.1374 13.2441C55.6246 14.1189 56.5397 15.7517 56.5397 17.5011V44.3843C56.5397 46.1336 55.6246 47.7665 54.1374 48.6412L31.3155 62.1119C30.6291 62.4035 29.7712 62.6367 28.9132 62.6367Z" fill="#5FA04E"/>
<path d="M36.0057 44.1509C25.9961 44.1509 23.937 39.4857 23.937 35.5203C23.937 35.1705 24.2229 34.8206 24.6233 34.8206H27.5976C27.9408 34.8206 28.2268 35.0538 28.2268 35.4037C28.6843 38.4943 29.9999 40.0106 36.0629 40.0106C40.8675 40.0106 42.9266 38.9026 42.9266 36.2784C42.9266 34.7622 42.3546 33.6542 34.8617 32.8961C28.6272 32.2547 24.7377 30.8552 24.7377 25.7817C24.7377 21.0582 28.6272 18.2592 35.1477 18.2592C42.469 18.2592 46.0725 20.825 46.5301 26.4232C46.5301 26.5982 46.4729 26.7731 46.3585 26.9481C46.2441 27.0647 46.0725 27.1813 45.9009 27.1813H42.8694C42.5834 27.1813 42.2974 26.9481 42.2403 26.6564C41.5539 23.4491 39.7807 22.3995 35.0905 22.3995C29.8283 22.3995 29.1992 24.2656 29.1992 25.6651C29.1992 27.3562 29.9427 27.8811 37.0353 28.8141C44.0706 29.7472 47.3881 31.0884 47.3881 36.1035C47.3881 41.2352 43.2126 44.1509 36.0057 44.1509Z" fill="#5FA04E"/>
</g>
<defs>
<clipPath id="clip0_206_157">
<rect width="56.32" height="64" fill="white" transform="translate(0.653717 -1.36328)"/>
</clipPath>
</defs>
</svg>
