<svg width="71" height="61" viewBox="0 0 71 61" fill="none" xmlns="http://www.w3.org/2000/svg">
<g clip-path="url(#clip0_206_139)">
<path d="M35.6569 35.6407C39.3292 35.6407 42.3062 32.6085 42.3062 28.8682C42.3062 25.1278 39.3292 22.0957 35.6569 22.0957C31.9846 22.0957 29.0075 25.1278 29.0075 28.8682C29.0075 32.6085 31.9846 35.6407 35.6569 35.6407Z" fill="#087EA4"/>
<path d="M35.6569 44.1062C54.0186 44.1062 68.9037 37.2839 68.9037 28.8681C68.9037 20.4523 54.0186 13.63 35.6569 13.63C17.2952 13.63 2.41014 20.4523 2.41014 28.8681C2.41014 37.2839 17.2952 44.1062 35.6569 44.1062Z" stroke="#087EA4" stroke-width="3"/>
<path d="M22.7003 36.4872C31.8811 52.6833 45.1245 62.4017 52.2803 58.1938C59.436 53.986 57.7944 37.4452 48.6135 21.2491C39.4327 5.05292 26.1893 -4.6655 19.0335 -0.457612C11.8778 3.75027 13.5194 20.291 22.7003 36.4872Z" stroke="#087EA4" stroke-width="3"/>
<path d="M22.7003 21.249C13.5194 37.4452 11.8778 53.9859 19.0335 58.1938C26.1893 62.4017 39.4327 52.6833 48.6135 36.4871C57.7944 20.291 59.436 3.75021 52.2803 -0.457671C45.1245 -4.66556 31.8811 5.05286 22.7003 21.249Z" stroke="#087EA4" stroke-width="3"/>
</g>
<defs>
<clipPath id="clip0_206_139">
<rect width="69.8182" height="64" fill="white" transform="translate(0.747803 -3.13184)"/>
</clipPath>
</defs>
</svg>
