<svg width="44" height="63" viewBox="0 0 44 63" fill="none" xmlns="http://www.w3.org/2000/svg">
<g clip-path="url(#clip0_206_194)">
<path d="M22 30.402C22 27.573 23.1238 24.8599 25.1242 22.8595C27.1246 20.8592 29.8377 19.7354 32.6667 19.7354C35.4956 19.7354 38.2087 20.8592 40.2091 22.8595C42.2095 24.8599 43.3333 27.573 43.3333 30.402C43.3333 33.231 42.2095 35.9441 40.2091 37.9445C38.2087 39.9449 35.4956 41.0687 32.6667 41.0687C29.8377 41.0687 27.1246 39.9449 25.1242 37.9445C23.1238 35.9441 22 33.231 22 30.402Z" fill="#1ABCFE"/>
<path d="M0.666672 51.7353C0.666672 48.9063 1.79048 46.1932 3.79087 44.1928C5.79125 42.1924 8.50436 41.0686 11.3333 41.0686H22V51.7353C22 54.5642 20.8762 57.2774 18.8758 59.2777C16.8754 61.2781 14.1623 62.4019 11.3333 62.4019C8.50436 62.4019 5.79125 61.2781 3.79087 59.2777C1.79048 57.2774 0.666672 54.5642 0.666672 51.7353Z" fill="#0ACF83"/>
<path d="M22 -1.59802V19.7353H32.6667C35.4956 19.7353 38.2087 18.6115 40.2091 16.6111C42.2095 14.6107 43.3333 11.8976 43.3333 9.06864C43.3333 6.23967 42.2095 3.52656 40.2091 1.52617C38.2087 -0.474216 35.4956 -1.59802 32.6667 -1.59802L22 -1.59802Z" fill="#FF7262"/>
<path d="M0.666672 9.06864C0.666672 11.8976 1.79048 14.6107 3.79087 16.6111C5.79125 18.6115 8.50436 19.7353 11.3333 19.7353H22V-1.59802H11.3333C8.50436 -1.59802 5.79125 -0.474216 3.79087 1.52617C1.79048 3.52656 0.666672 6.23967 0.666672 9.06864Z" fill="#F24E1E"/>
<path d="M0.666672 30.402C0.666672 33.231 1.79048 35.9441 3.79087 37.9445C5.79125 39.9449 8.50436 41.0687 11.3333 41.0687H22V19.7354H11.3333C8.50436 19.7354 5.79125 20.8592 3.79087 22.8595C1.79048 24.8599 0.666672 27.573 0.666672 30.402Z" fill="#A259FF"/>
</g>
<defs>
<clipPath id="clip0_206_194">
<rect width="42.6667" height="64" fill="white" transform="translate(0.666672 -1.59802)"/>
</clipPath>
</defs>
</svg>
