<svg width="30" height="63" viewBox="0 0 30 63" fill="none" xmlns="http://www.w3.org/2000/svg">
<g clip-path="url(#clip0_211_82)">
<path d="M20.7076 5.57062C18.0097 2.3837 15.6865 -0.853033 15.2118 -1.52528C15.1619 -1.57507 15.0869 -1.57507 15.0369 -1.52528C14.5623 -0.853033 12.239 2.3837 9.54109 5.57062C-13.6163 34.9749 13.1883 54.8186 13.1883 54.8186L13.4132 54.968C13.613 58.0306 14.1126 62.4374 14.1126 62.4374H15.1119H16.1111C16.1111 62.4374 16.6108 58.0554 16.8106 54.968L17.0354 54.7938C17.0604 54.7938 43.865 34.9749 20.7076 5.57062ZM15.1119 54.3704C15.1119 54.3704 13.9128 53.3496 13.588 52.8267V52.7771L15.0369 20.7583C15.0369 20.6587 15.1868 20.6587 15.1868 20.7583L16.6357 52.7771V52.8267C16.311 53.3496 15.1119 54.3704 15.1119 54.3704Z" fill="#00684A"/>
</g>
<defs>
<clipPath id="clip0_211_82">
<rect width="29.7674" height="64" fill="white" transform="translate(0.116272 -1.56262)"/>
</clipPath>
</defs>
</svg>
