<svg width="64" height="63" viewBox="0 0 64 63" fill="none" xmlns="http://www.w3.org/2000/svg">
<path d="M64 48.2267C61.672 48.8187 60.232 48.2527 58.94 46.3127L49.752 33.6007L48.424 31.8407L37.694 46.3547C36.468 48.1007 35.182 48.8607 32.894 48.2427L46.634 29.7987L33.842 13.1387C36.042 12.7107 37.562 12.9287 38.912 14.8987L48.442 27.7687L58.042 14.9687C59.272 13.2227 60.594 12.5587 62.802 13.2027L57.842 19.7787L51.122 28.5287C50.322 29.5287 50.432 30.2127 51.168 31.1787L64 48.2267ZM0.016 29.4907L1.14 23.9627C4.2 13.0227 16.74 8.47674 25.388 15.2367C30.442 19.2127 31.698 24.8367 31.448 31.1367H2.96C2.532 42.4767 10.694 49.3207 21.1 45.8287C24.75 44.6027 26.9 41.7447 27.976 38.1687C28.522 36.3767 29.426 36.0967 31.11 36.6087C30.25 41.0807 28.31 44.8167 24.21 47.1547C18.084 50.6547 9.34 49.5227 4.74 44.6587C2 41.8367 0.868 38.2607 0.36 34.4367C0.28 33.8047 0.12 33.2027 0 32.5967C0.0106667 31.5621 0.016 30.5274 0.016 29.4927V29.4907ZM3.012 28.7307H28.756C28.588 20.5307 23.482 14.7067 16.504 14.6567C8.844 14.5967 3.344 20.2827 3.012 28.7307Z" fill="black"/>
</svg>
