<svg width="65" height="63" viewBox="0 0 65 63" fill="none" xmlns="http://www.w3.org/2000/svg">
<g clip-path="url(#clip0_206_134)">
<path d="M61.8739 -1.36328H3.8739C2.21705 -1.36328 0.873901 -0.0201355 0.873901 1.63672V59.6367C0.873901 61.2936 2.21705 62.6367 3.8739 62.6367H61.8739C63.5308 62.6367 64.8739 61.2936 64.8739 59.6367V1.63672C64.8739 -0.0201355 63.5308 -1.36328 61.8739 -1.36328Z" fill="#3178C6"/>
<path fill-rule="evenodd" clip-rule="evenodd" d="M38.005 48.3707V55.3837C39.1412 55.9677 40.4849 56.4062 42.0363 56.6982C43.5876 56.9907 45.2227 57.1367 46.9415 57.1367C48.6167 57.1367 50.208 56.9762 51.7154 56.6547C53.2234 56.3332 54.5449 55.8037 55.6814 55.0657C56.8174 54.3277 57.7169 53.3637 58.3799 52.1727C59.0424 50.9822 59.3739 49.5102 59.3739 47.7571C59.3739 46.486 59.1844 45.372 58.8059 44.415C58.4269 43.4581 57.8809 42.6071 57.1669 41.8619C56.4534 41.1168 55.5974 40.4484 54.5999 39.8567C53.6019 39.265 52.4769 38.7062 51.2239 38.1802C50.3063 37.8004 49.4833 37.4315 48.755 37.0735C48.0266 36.7156 47.4076 36.3503 46.8978 35.9778C46.388 35.6052 45.9947 35.2107 45.7179 34.7943C45.4412 34.378 45.3027 33.9068 45.3027 33.3808C45.3027 32.8987 45.4266 32.464 45.6742 32.0769C45.9219 31.6897 46.2715 31.3573 46.723 31.0797C47.1745 30.8022 47.7281 30.5867 48.3836 30.4333C49.0391 30.2798 49.7673 30.2031 50.5685 30.2031C51.1514 30.2031 51.7664 30.247 52.4149 30.3346C53.0629 30.4223 53.7149 30.5574 54.3704 30.7401C55.0259 30.9227 55.6629 31.1528 56.2824 31.4304C56.9014 31.708 57.4729 32.0294 57.9974 32.3946V25.8421C56.9339 25.433 55.7724 25.1298 54.5124 24.9326C53.2524 24.7353 51.8069 24.6367 50.1752 24.6367C48.5147 24.6367 46.9415 24.8157 45.4557 25.1736C43.97 25.5316 42.6626 26.0904 41.5337 26.8501C40.4048 27.6099 39.5126 28.5778 38.8572 29.7539C38.2017 30.93 37.8739 32.3362 37.8739 33.9725C37.8739 36.0618 38.4748 37.8442 39.6765 39.3198C40.8783 40.7954 42.7027 42.0446 45.1498 43.0673C46.1112 43.4617 47.0071 43.8489 47.8373 44.2288C48.6676 44.6086 49.385 45.0031 49.9895 45.4122C50.594 45.8213 51.0709 46.2669 51.4204 46.749C51.7704 47.2311 51.9449 47.779 51.9449 48.3926C51.9449 48.8457 51.8359 49.2657 51.6174 49.6527C51.3989 50.0397 51.0674 50.3757 50.6231 50.6607C50.1788 50.9457 49.6254 51.1687 48.9626 51.3292C48.2998 51.4897 47.5242 51.5702 46.6356 51.5702C45.1207 51.5702 43.6204 51.3037 42.1346 50.7702C40.6488 50.2372 39.2723 49.4372 38.005 48.3707ZM26.2252 30.9139H35.3739V25.1367H9.8739V30.9139H18.9779V56.6367H26.2252V30.9139Z" fill="white"/>
</g>
<defs>
<clipPath id="clip0_206_134">
<rect width="64" height="64" fill="white" transform="translate(0.873901 -1.36328)"/>
</clipPath>
</defs>
</svg>
