<svg width="64" height="63" viewBox="0 0 64 63" fill="none" xmlns="http://www.w3.org/2000/svg">
<path d="M53.156 33.01C51.1053 33.0207 49.3293 33.5127 47.8413 34.2473C47.2973 33.1607 46.7453 32.2047 46.6533 31.494C46.5453 30.6647 46.42 30.1687 46.5507 29.1807C46.6813 28.1927 47.2533 26.7927 47.2453 26.6873C47.2373 26.582 47.1173 26.0793 45.9347 26.07C44.752 26.062 43.74 26.298 43.6213 26.61C43.5027 26.922 43.2747 27.6247 43.1333 28.358C42.9267 29.43 40.772 33.2553 39.5493 35.2553C39.1493 34.474 38.8093 33.786 38.7387 33.242C38.6307 32.4127 38.5053 31.9167 38.636 30.9287C38.7667 29.9407 39.3387 28.5407 39.3307 28.4353C39.3227 28.33 39.2027 27.8273 38.02 27.818C36.8373 27.81 35.8253 28.046 35.7067 28.358C35.588 28.67 35.46 29.3993 35.2187 30.106C34.976 30.8113 32.1133 37.1913 31.3627 38.846C30.98 39.6887 30.648 40.366 30.4133 40.8273L30.412 40.8247C30.412 40.8247 30.3973 40.8553 30.3733 40.9073C30.172 41.3007 30.0533 41.518 30.0533 41.518C30.0533 41.518 30.0547 41.5207 30.0573 41.526C29.8973 41.8153 29.7267 42.0833 29.6427 42.0833C29.584 42.0833 29.4653 41.314 29.668 40.258C30.0947 38.0447 31.1173 34.594 31.108 34.474C31.1027 34.4127 31.2987 33.8113 30.44 33.4967C29.6053 33.1913 29.308 33.7007 29.232 33.702C29.1587 33.7033 29.104 33.882 29.104 33.882C29.104 33.882 30.0333 30.0007 27.3307 30.0007C25.64 30.0007 23.2987 31.85 22.1453 33.526C21.4173 33.9233 19.8587 34.774 18.2067 35.682C17.572 36.0313 16.924 36.3873 16.3093 36.726C16.268 36.6793 16.2253 36.634 16.1827 36.5873C12.904 33.09 6.84533 30.6167 7.10133 25.914C7.19466 24.2047 7.78933 19.7033 18.7453 14.2447C27.72 9.77267 34.9053 11.0033 36.1467 13.73C37.92 17.6273 32.3067 24.8687 22.9867 25.914C19.436 26.3127 17.5653 24.9353 17.1 24.4233C16.6107 23.8833 16.5373 23.8593 16.3547 23.9607C16.0573 24.126 16.2453 24.602 16.3547 24.886C16.6333 25.61 17.7747 26.894 19.7213 27.534C21.4347 28.0967 25.604 28.4047 30.6453 26.454C36.2933 24.27 40.7027 18.1927 39.4067 13.114C38.0893 7.94868 29.524 6.25001 21.4173 9.13001C16.5867 10.8447 11.364 13.5353 7.608 17.0473C3.14266 21.2233 2.43066 24.8593 2.724 26.378C3.76666 31.7753 11.2053 35.29 14.184 37.894C14.0373 37.9753 13.8987 38.0513 13.7733 38.1207C12.28 38.8593 6.60933 41.8273 5.19066 44.962C3.58133 48.518 5.44666 51.07 6.68133 51.414C10.5067 52.478 14.432 50.5633 16.5427 47.4167C18.652 44.2713 18.3947 40.174 17.4267 38.3047C17.4147 38.282 17.4013 38.2593 17.3893 38.2353C17.7747 38.0073 18.168 37.7753 18.5573 37.546C19.3173 37.0993 20.064 36.6833 20.7107 36.3313C20.348 37.3233 20.0827 38.514 19.9453 40.2327C19.7827 42.2513 20.6107 44.8607 21.6933 45.8873C22.1707 46.3393 22.744 46.35 23.1067 46.35C24.3667 46.35 24.9413 45.302 25.5747 44.062C26.3507 42.542 27.04 40.7713 27.04 40.7713C27.04 40.7713 26.176 45.5527 28.5307 45.5527C29.3893 45.5527 30.252 44.4393 30.6373 43.8727C30.6387 43.8793 30.6387 43.882 30.6387 43.882C30.6387 43.882 30.6613 43.8447 30.7053 43.7713C30.7947 43.6353 30.8453 43.5487 30.8453 43.5487C30.8453 43.5487 30.8467 43.5393 30.8493 43.5233C31.1947 42.9247 31.96 41.5593 33.1067 39.3073C34.5893 36.398 36.0107 32.7527 36.0107 32.7527C36.0107 32.7527 36.1427 33.6433 36.576 35.118C36.8307 35.9847 37.372 36.9433 37.8 37.8633C37.456 38.3407 37.2453 38.614 37.2453 38.614C37.2453 38.614 37.2467 38.6193 37.2507 38.6287C36.976 38.994 36.668 39.3873 36.3453 39.7713C35.1747 41.1647 33.7813 42.7567 33.5947 43.2153C33.3747 43.7567 33.4267 44.154 33.852 44.4753C34.1627 44.7087 34.7147 44.746 35.292 44.7073C36.344 44.6367 37.0827 44.3753 37.448 44.2167C38.0173 44.0153 38.68 43.6993 39.3013 43.242C40.4493 42.398 41.1413 41.1913 41.0747 39.5913C41.0373 38.71 40.7573 37.8367 40.4013 37.0127C40.5053 36.8633 40.6093 36.7113 40.7147 36.5593C42.524 33.914 43.928 31.0073 43.928 31.0073C43.928 31.0073 44.06 31.898 44.4933 33.3727C44.712 34.118 45.1453 34.9327 45.5347 35.73C43.8333 37.1127 42.7787 38.7193 42.412 39.7727C41.7347 41.722 42.2653 42.6047 43.26 42.806C43.7107 42.8967 44.348 42.69 44.8267 42.4873C45.4227 42.29 46.1387 41.9607 46.808 41.4687C47.956 40.6247 49.06 39.4433 48.9933 37.8447C48.9627 37.1167 48.7653 36.394 48.4973 35.7007C49.94 35.0993 51.8067 34.766 54.1853 35.0433C59.288 35.6393 60.288 38.8247 60.0973 40.158C59.9053 41.4913 58.836 42.2247 58.4773 42.446C58.12 42.6673 58.0107 42.7447 58.04 42.9087C58.084 43.1473 58.2493 43.1393 58.5547 43.0873C58.9747 43.0167 61.2333 42.0033 61.3307 39.542C61.452 36.414 58.4587 32.982 53.156 33.01ZM13.8267 46.2687C12.136 48.1127 9.776 48.8087 8.76266 48.222C7.66933 47.5887 8.10266 44.874 10.176 42.9167C11.44 41.7247 13.072 40.626 14.1547 39.95C14.4013 39.802 14.7627 39.5847 15.2027 39.3207C15.276 39.2793 15.3173 39.2567 15.3173 39.2567L15.316 39.254C15.4013 39.2033 15.488 39.1513 15.5773 39.0967C16.3333 41.882 15.6013 44.334 13.8267 46.2687ZM26.14 37.8993C25.552 39.334 24.32 43.006 23.5693 42.8087C22.9253 42.6393 22.5333 39.8487 23.4413 37.102C23.8973 35.7193 24.8733 34.0673 25.4467 33.426C26.3693 32.394 27.3853 32.0567 27.632 32.4753C27.9453 33.0087 26.5093 36.9993 26.14 37.8993ZM36.312 42.7527C36.0627 42.8833 35.8333 42.9647 35.728 42.902C35.6493 42.8553 35.8307 42.6833 35.8307 42.6833C35.8307 42.6833 37.1027 41.314 37.604 40.6913C37.896 40.3287 38.2333 39.898 38.6013 39.418C38.604 39.466 38.6053 39.514 38.6053 39.5607C38.6027 41.2007 37.0187 42.3073 36.312 42.7527ZM44.148 40.966C43.9613 40.834 43.9933 40.406 44.6053 39.0713C44.8453 38.5473 45.3947 37.666 46.3467 36.8233C46.4573 37.17 46.524 37.502 46.5227 37.8113C46.5107 39.8753 45.0387 40.646 44.148 40.966Z" fill="#F06292"/>
</svg>
