<svg width="50" height="32" viewBox="0 0 50 32" fill="none" xmlns="http://www.w3.org/2000/svg">
<path d="M42.3282 2.65449C39.0861 1.40521 35.665 0.51358 32.1502 0.00182254C32.1184 -0.00268028 32.0856 0.00120866 32.0565 0.0129548C32.0274 0.0247009 32.0034 0.0437273 31.9877 0.0674177C31.5471 0.72337 31.0596 1.58136 30.719 2.25305C26.9303 1.77029 23.0765 1.77029 19.2878 2.25305C18.9079 1.50479 18.478 0.775093 18.0003 0.0674177C17.9843 0.0439867 17.9602 0.0251796 17.9312 0.0134712C17.9022 0.00176281 17.8696 -0.00229809 17.8378 0.00182254C14.3223 0.510841 10.9004 1.40294 7.65982 2.65449C7.63209 2.66338 7.6089 2.68007 7.5942 2.70172C1.11302 10.8329 -0.66509 18.7647 0.206776 26.5967C0.209901 26.6335 0.238025 26.6702 0.2724 26.6938C4.0465 29.0411 8.26791 30.8333 12.7566 31.9939C12.7883 32.0023 12.8224 32.002 12.8539 31.993C12.8853 31.9841 12.9126 31.9669 12.9316 31.9441C13.8941 30.8421 14.7504 29.6797 15.4879 28.457C15.5032 28.4318 15.5085 28.4032 15.5029 28.3753C15.4972 28.3474 15.481 28.3217 15.4566 28.3022C15.4405 28.2894 15.4213 28.2796 15.4004 28.2734C14.054 27.8389 12.7501 27.3169 11.5004 26.7122C11.4655 26.6956 11.4395 26.6683 11.4279 26.6361C11.4163 26.6039 11.4199 26.5691 11.4379 26.539C11.4485 26.5195 11.4646 26.5024 11.4848 26.4892C11.7473 26.3239 12.0098 26.1507 12.2598 25.9775C12.2819 25.9626 12.3084 25.953 12.3364 25.9498C12.3645 25.9466 12.3931 25.9498 12.4191 25.9592C20.6034 29.0972 29.4627 29.0972 37.547 25.9592C37.574 25.9493 37.6037 25.9459 37.6328 25.9491C37.662 25.9523 37.6896 25.9622 37.7126 25.9775C37.9626 26.1507 38.2251 26.3239 38.4876 26.4892C38.5089 26.5022 38.526 26.5195 38.5374 26.5395C38.5487 26.5594 38.554 26.5814 38.5528 26.6035C38.5516 26.6256 38.5438 26.6471 38.5303 26.6661C38.5167 26.685 38.4978 26.7009 38.4751 26.7122C37.2283 27.3225 35.9227 27.8438 34.572 28.2707C34.5505 28.2773 34.5309 28.2877 34.5147 28.3013C34.4985 28.3149 34.4861 28.3314 34.4783 28.3495C34.4711 28.367 34.4682 28.3856 34.4698 28.4041C34.4714 28.4225 34.4775 28.4406 34.4877 28.457C35.2377 29.6771 36.097 30.8421 37.0408 31.9441C37.0598 31.9669 37.0871 31.9841 37.1185 31.993C37.15 32.002 37.1841 32.0023 37.2158 31.9939C41.712 30.8369 45.9403 29.0445 49.7188 26.6938C49.7377 26.6828 49.7534 26.6684 49.7648 26.6516C49.7761 26.6348 49.7828 26.616 49.7844 26.5967C50.8281 17.542 48.0375 9.67581 42.3907 2.70435C42.385 2.69283 42.3765 2.68244 42.3658 2.67386C42.355 2.66527 42.3422 2.65867 42.3282 2.65449ZM16.7097 21.8267C14.2441 21.8267 12.216 19.927 12.216 17.5971C12.216 15.2645 14.2066 13.3649 16.7097 13.3649C19.2316 13.3649 21.2409 15.2803 21.2034 17.5971C21.2034 19.927 19.2128 21.8267 16.7097 21.8267ZM33.3221 21.8267C30.8596 21.8267 28.8284 19.927 28.8284 17.5971C28.8284 15.2645 30.819 13.3649 33.3221 13.3649C35.8439 13.3649 37.8564 15.2803 37.8158 17.5971C37.8158 19.927 35.8439 21.8267 33.3221 21.8267Z" fill="white"/>
</svg>
