<svg width="105" height="63" viewBox="0 0 105 63" fill="none" xmlns="http://www.w3.org/2000/svg">
<g clip-path="url(#clip0_206_186)">
<mask id="mask0_206_186" style="mask-type:luminance" maskUnits="userSpaceOnUse" x="0" y="-2" width="105" height="64">
<path d="M0 -1.59802H104.727V61.2383H0V-1.59802Z" fill="white"/>
</mask>
<g mask="url(#mask0_206_186)">
<path fill-rule="evenodd" clip-rule="evenodd" d="M52.3636 -1.59802C38.4 -1.59802 29.6727 5.3838 26.1818 19.3474C31.4182 12.3656 37.5273 9.74743 44.5091 11.4929C48.4926 12.4878 51.3396 15.3794 54.4911 18.5775C59.6247 23.7886 65.567 29.8202 78.5454 29.8202C92.5091 29.8202 101.236 22.8383 104.727 8.8747C99.4909 15.8565 93.3818 18.4747 86.4 16.7292C82.4165 15.7343 79.5695 12.8427 76.4179 9.64464C71.2844 4.43349 65.3421 -1.59802 52.3636 -1.59802ZM26.1818 29.8202C12.2182 29.8202 3.49091 36.802 0 50.7656C5.23636 43.7838 11.3455 41.1656 18.3273 42.9111C22.3108 43.9079 25.1578 46.7976 28.3093 49.9957C33.4429 55.2068 39.3852 61.2383 52.3636 61.2383C66.3273 61.2383 75.0545 54.2565 78.5454 40.2929C73.3091 47.2747 67.2 49.8929 60.2182 48.1474C56.2347 47.1525 53.3876 44.2609 50.2361 41.0628C45.1025 35.8517 39.1602 29.8202 26.1818 29.8202Z" fill="#38BDF8"/>
</g>
</g>
<defs>
<clipPath id="clip0_206_186">
<rect width="104.727" height="64" fill="white" transform="translate(0 -1.59802)"/>
</clipPath>
</defs>
</svg>
