<svg width="64" height="63" viewBox="0 0 64 63" fill="none" xmlns="http://www.w3.org/2000/svg">
<path d="M0 62.6367V-1.36328H64V62.6367H0Z" fill="#FFD600"/>
<path d="M41.8453 46.5425C43.0756 48.5407 44.4125 50.4554 47.2445 50.4554C49.6231 50.4554 50.8711 49.2732 50.8711 47.6376C50.8711 45.6803 49.5805 44.9852 46.9636 43.8456L45.5289 43.2341C41.3885 41.4776 38.6347 39.2767 38.6347 34.6278C38.6347 30.3434 41.9147 27.083 47.04 27.083C50.6898 27.083 53.312 28.347 55.2036 31.6572L50.7342 34.5141C49.7511 32.7576 48.688 32.0661 47.04 32.0661C45.3582 32.0661 44.2933 33.1274 44.2933 34.5141C44.2933 36.2278 45.36 36.9212 47.8222 37.9825L49.2569 38.5941C54.1369 40.6723 56.8889 42.795 56.8889 47.5665C56.8889 52.7078 52.8285 55.5256 47.3778 55.5256C42.0462 55.5256 39.0187 52.8501 37.3333 49.5381L41.8453 46.5425ZM21.248 46.6883C22.1476 48.299 23.5147 49.5381 25.4809 49.5381C27.3618 49.5381 28.4445 48.795 28.4445 45.9061V27.0812H34.3698V46.8163C34.3698 52.8021 30.8978 55.5256 25.8276 55.5256C21.2462 55.5256 17.9396 52.4216 16.592 49.5381L21.248 46.6883Z" fill="#000001"/>
</svg>
