<svg width="64" height="63" viewBox="0 0 64 63" fill="none" xmlns="http://www.w3.org/2000/svg">
<path d="M56.2667 27.8686L34.5333 6.13527C33.8667 5.4686 32.9333 5.0686 32 5.0686C31.0667 5.0686 30.1333 5.4686 29.4667 6.13527L24.8 10.8019L30.2667 16.2686C30.8 16.0019 31.3333 15.8686 32 15.8686C34.2667 15.8686 36 17.6019 36 19.8686C36 20.5353 35.8667 21.0686 35.6 21.6019L40.9333 26.9353C41.4667 26.6686 42 26.5353 42.6667 26.5353C44.9333 26.5353 46.6667 28.2686 46.6667 30.5353C46.6667 32.8019 44.9333 34.5353 42.6667 34.5353C40.4 34.5353 38.6667 32.8019 38.6667 30.5353C38.6667 29.8686 38.8 29.3353 39.0667 28.8019L33.7333 23.4686C33.6 23.4686 33.4667 23.6019 33.3333 23.6019V37.4686C34.9333 38.0019 36 39.4686 36 41.2019C36 43.4686 34.2667 45.2019 32 45.2019C29.7333 45.2019 28 43.4686 28 41.2019C28 39.4686 29.0667 38.0019 30.6667 37.4686V23.4686C29.0667 22.9353 28 21.4686 28 19.7353C28 19.0686 28.1333 18.5353 28.4 18.0019L22.9333 12.5353L7.73332 27.8686C7.06666 28.5353 6.66666 29.4686 6.66666 30.4019C6.66666 31.3353 7.06666 32.2686 7.73332 32.9353L29.4667 54.6686C30.1333 55.3353 31.0667 55.7353 32 55.7353C32.9333 55.7353 33.8667 55.3353 34.5333 54.6686L56.2667 32.9353C56.9333 32.2686 57.3333 31.3353 57.3333 30.4019C57.3333 29.4686 56.9333 28.5353 56.2667 27.8686Z" fill="#F4511E"/>
</svg>
